<?xml version="1.0" encoding="UTF-8" standalone="no"?>
<!-- Generator: Adobe Illustrator 19.0.0, SVG Export Plug-In . SVG Version: 6.00 Build 0)  -->

<svg
   xmlns:dc="http://purl.org/dc/elements/1.1/"
   xmlns:cc="http://creativecommons.org/ns#"
   xmlns:rdf="http://www.w3.org/1999/02/22-rdf-syntax-ns#"
   xmlns:svg="http://www.w3.org/2000/svg"
   xmlns="http://www.w3.org/2000/svg"
   xmlns:sodipodi="http://sodipodi.sourceforge.net/DTD/sodipodi-0.dtd"
   xmlns:inkscape="http://www.inkscape.org/namespaces/inkscape"
   version="1.1"
   id="Layer_1"
   x="0px"
   y="0px"
   viewBox="0 0 512 512"
   style="enable-background:new 0 0 512 512;"
   xml:space="preserve"
   inkscape:version="0.91 r13725"
   sodipodi:docname="pin2_custom.svg"><metadata
     id="metadata51"><rdf:RDF><cc:Work
         rdf:about=""><dc:format>image/svg+xml</dc:format><dc:type
           rdf:resource="http://purl.org/dc/dcmitype/StillImage" /></cc:Work></rdf:RDF></metadata><defs
     id="defs49" /><sodipodi:namedview
     pagecolor="#ffffff"
     bordercolor="#666666"
     borderopacity="1"
     objecttolerance="10"
     gridtolerance="10"
     guidetolerance="10"
     inkscape:pageopacity="0"
     inkscape:pageshadow="2"
     inkscape:window-width="737"
     inkscape:window-height="480"
     id="namedview47"
     showgrid="false"
     inkscape:zoom="0.4609375"
     inkscape:cx="175.72881"
     inkscape:cy="256"
     inkscape:window-x="793"
     inkscape:window-y="498"
     inkscape:window-maximized="0"
     inkscape:current-layer="Layer_1" /><path
     style="fill:#65a87c;fill-opacity:1"
     d="M294.717,457.338c21.658,12.504,21.774,32.778,0.257,45.283s-56.52,12.505-78.179,0  c-21.658-12.505-21.771-32.778-0.253-45.283C238.557,444.545,273.558,445.122,294.717,457.338z"
     id="path3" /><g
     id="g5"><path
       style="fill:#D8D8DA;"
       d="M265.421,136.206c0.028-1.422-0.899-2.85-2.777-3.935c-3.603-2.08-9.563-2.179-13.312,0   c-1.826,1.062-2.738,2.451-2.736,3.842c0-0.004,0-0.009,0-0.014l-0.014,342.376c-0.004,1.404,0.923,2.811,2.778,3.882   c3.688,2.129,9.648,2.129,13.312,0c1.82-1.057,2.731-2.442,2.736-3.828l0.014-342.376   C265.422,136.17,265.421,136.188,265.421,136.206z"
       id="path7" /><path
       style="fill:#D8D8DA;"
       d="M265.422,136.152l-0.014,342.376c-0.004,1.387-0.915,2.77-2.736,3.828   c-3.664,2.129-9.624,2.129-13.312,0c-1.856-1.071-2.783-2.477-2.778-3.882l0.014-342.376c-0.004,1.404,0.923,2.811,2.778,3.882   c3.688,2.129,9.648,2.129,13.312,0C264.506,138.923,265.418,137.539,265.422,136.152z"
       id="path9" /></g><path
     style="fill:#E0E0E2;"
     d="M262.636,132.27c3.688,2.129,3.707,5.582,0.044,7.71c-3.664,2.129-9.624,2.129-13.312,0  c-3.688-2.129-3.707-5.582-0.043-7.71C253.073,130.092,259.033,130.19,262.636,132.27z"
     id="path11" /><circle
     style="fill:#cb4335;fill-opacity:1"
     cx="256"
     cy="109.975"
     r="109.975"
     id="circle13" /><g
     id="g17" /><g
     id="g19" /><g
     id="g21" /><g
     id="g23" /><g
     id="g25" /><g
     id="g27" /><g
     id="g29" /><g
     id="g31" /><g
     id="g33" /><g
     id="g35" /><g
     id="g37" /><g
     id="g39" /><g
     id="g41" /><g
     id="g43" /><g
     id="g45" /></svg>