<?xml version="1.0" encoding="UTF-8" standalone="no"?>
<!-- Generator: Adobe Illustrator 19.0.0, SVG Export Plug-In . SVG Version: 6.00 Build 0)  -->

<svg
   xmlns:dc="http://purl.org/dc/elements/1.1/"
   xmlns:cc="http://creativecommons.org/ns#"
   xmlns:rdf="http://www.w3.org/1999/02/22-rdf-syntax-ns#"
   xmlns:svg="http://www.w3.org/2000/svg"
   xmlns="http://www.w3.org/2000/svg"
   xmlns:sodipodi="http://sodipodi.sourceforge.net/DTD/sodipodi-0.dtd"
   xmlns:inkscape="http://www.inkscape.org/namespaces/inkscape"
   version="1.1"
   id="Layer_1"
   x="0px"
   y="0px"
   viewBox="0 0 264.828 538.03387"
   xml:space="preserve"
   inkscape:version="0.91 r13725"
   sodipodi:docname="pin3_red_shadow.svg"
   width="264.828"
   height="538.03387"><metadata
     id="metadata43"><rdf:RDF><cc:Work
         rdf:about=""><dc:format>image/svg+xml</dc:format><dc:type
           rdf:resource="http://purl.org/dc/dcmitype/StillImage" /><dc:title></dc:title></cc:Work></rdf:RDF></metadata><defs
     id="defs41" /><sodipodi:namedview
     pagecolor="#ffffff"
     bordercolor="#666666"
     borderopacity="1"
     objecttolerance="10"
     gridtolerance="10"
     guidetolerance="10"
     inkscape:pageopacity="0"
     inkscape:pageshadow="2"
     inkscape:window-width="737"
     inkscape:window-height="480"
     id="namedview39"
     showgrid="false"
     inkscape:zoom="0.4609375"
     inkscape:cx="92.633853"
     inkscape:cy="195.25423"
     inkscape:window-x="947"
     inkscape:window-y="391"
     inkscape:window-maximized="0"
     inkscape:current-layer="layer2"
     fit-margin-top="0"
     fit-margin-left="0"
     fit-margin-right="0"
     fit-margin-bottom="0" /><g
     id="g9"
     transform="translate(-123.586,0)" /><g
     id="g11"
     transform="translate(-123.586,0)" /><g
     id="g13"
     transform="translate(-123.586,0)" /><g
     id="g15"
     transform="translate(-123.586,0)" /><g
     id="g17"
     transform="translate(-123.586,0)" /><g
     id="g19"
     transform="translate(-123.586,0)" /><g
     id="g21"
     transform="translate(-123.586,0)" /><g
     id="g23"
     transform="translate(-123.586,0)" /><g
     id="g25"
     transform="translate(-123.586,0)" /><g
     id="g27"
     transform="translate(-123.586,0)" /><g
     id="g29"
     transform="translate(-123.586,0)" /><g
     id="g31"
     transform="translate(-123.586,0)" /><g
     id="g33"
     transform="translate(-123.586,0)" /><g
     id="g35"
     transform="translate(-123.586,0)" /><g
     id="g37"
     transform="translate(-123.586,0)" /><g
     inkscape:groupmode="layer"
     id="layer2"
     inkscape:label="Layer 2"
     transform="translate(-123.586,0)"><ellipse
       style="fill:#333333;fill-opacity:1;stroke-width:0.5;stroke-miterlimit:4;stroke-dasharray:none"
       id="path4149"
       cx="259.25424"
       cy="503.32202"
       rx="70.508476"
       ry="34.711864" /></g><g
     inkscape:groupmode="layer"
     id="layer1"
     inkscape:label="Layer 1"
     transform="translate(-123.586,0)"><path
       style="fill:#d8d8d8"
       d="m 256,264.828 c -11.476,0 -23.834,-1.766 -34.428,-4.414 l 16.772,233.931 C 239.228,504.055 246.29,512 256,512 c 9.71,0 16.772,-7.945 17.655,-17.655 l 16.772,-233.931 c -10.592,3.531 -22.951,4.414 -34.427,4.414"
       id="path3"
       inkscape:connector-curvature="0" /><path
       style="fill:#e67e76;fill-opacity:1"
       d="M 388.414,132.414 C 388.414,59.145 329.269,0 256,0 182.731,0 123.586,59.145 123.586,132.414 c 0,73.269 59.145,132.414 132.414,132.414 73.269,0 132.414,-59.145 132.414,-132.414"
       id="path5"
       inkscape:connector-curvature="0" /></g></svg>